<svg xmlns="http://www.w3.org/2000/svg" viewBox="0 0 400 300" width="100%" height="100%">
  <rect width="100%" height="100%" fill="var(--neutral-alpha-weak)" rx="12"/>
  <rect width="100%" height="100%" fill="none" stroke="var(--neutral-border)" stroke-width="1.5" rx="12"/>
  <g transform="translate(200, 150)" text-anchor="middle" dominant-baseline="middle">
    <!-- Document Icon -->
    <path d="M-12,-35 h24 a4,4 0 0 1 4,4 v55 a4,4 0 0 1 -4,4 h-24 a4,4 0 0 1 -4,-4 v-55 a4,4 0 0 1 4,-4 z" fill="none" stroke="var(--neutral-on-background-medium)" stroke-width="2"/>
    <line x1="-7" y1="-23" x2="7" y2="-23" stroke="var(--neutral-on-background-medium)" stroke-width="2"/>
    <line x1="-7" y1="-13" x2="3" y2="-13" stroke="var(--neutral-on-background-medium)" stroke-width="2"/>
    <line x1="-7" y1="-3" x2="7" y2="-3" stroke="var(--neutral-on-background-medium)" stroke-width="2"/>
    <circle cx="0" cy="12" r="3" fill="var(--neutral-on-background-medium)"/>
    <text y="42" font-family="var(--font-label)" font-size="12" fill="var(--neutral-on-background-medium)" font-weight="600" letter-spacing="1.5">CLICK TO SEE</text>
  </g>
</svg>
